HIERARCHY
ROOT Hips
{
  OFFSET 2.52616 93.466 -6.9379
  CHANNELS 6 Xposition Yposition Zposition Zrotation Xrotation Yrotation
  JOINT LeftUpLeg
  {
    OFFSET 8.64259 1.95398 -2.38835
    CHANNELS 6 Xposition Yposition Zposition Zrotation Xrotation Yrotation
    JOINT LeftLeg
    {
      OFFSET 43.7702 0 0
      CHANNELS 6 Xposition Yposition Zposition Zrotation Xrotation Yrotation
      JOINT LeftFoot
      {
        OFFSET 40.6238 0 0
        CHANNELS 6 Xposition Yposition Zposition Zrotation Xrotation Yrotation
        JOINT LeftToeBase
        {
          OFFSET 12.7242 0 0
          CHANNELS 6 Xposition Yposition Zposition Zrotation Xrotation Yrotation
          End Site
          {
            OFFSET 0 0 0
          }
        }
      }
    }
  }
  JOINT RightUpLeg
  {
    OFFSET -8.2249 1.95398 -2.59336
    CHANNELS 6 Xposition Yposition Zposition Zrotation Xrotation Yrotation
    JOINT RightLeg
    {
      OFFSET 43.5653 0 0
      CHANNELS 6 Xposition Yposition Zposition Zrotation Xrotation Yrotation
      JOINT RightFoot
      {
        OFFSET 40.6238 0 0
        CHANNELS 6 Xposition Yposition Zposition Zrotation Xrotation Yrotation
        JOINT RightToeBase
        {
          OFFSET 12.7242 0 0
          CHANNELS 6 Xposition Yposition Zposition Zrotation Xrotation Yrotation
          End Site
          {
            OFFSET 0 0 0
          }
        }
      }
    }
  }
  JOINT Spine
  {
    OFFSET 0.165834 0.87714 6.61349
    CHANNELS 6 Xposition Yposition Zposition Zrotation Xrotation Yrotation
    JOINT Spine1
    {
      OFFSET 7.38963 1.71661e-005 0
      CHANNELS 6 Xposition Yposition Zposition Zrotation Xrotation Yrotation
      JOINT Spine2
      {
        OFFSET 11.9445 1.14441e-005 0
        CHANNELS 6 Xposition Yposition Zposition Zrotation Xrotation Yrotation
        JOINT Spine3
        {
          OFFSET 14.7254 4.19617e-005 0
          CHANNELS 6 Xposition Yposition Zposition Zrotation Xrotation Yrotation
          JOINT Spine4
          {
            OFFSET 10.9679 0 0
            CHANNELS 6 Xposition Yposition Zposition Zrotation Xrotation Yrotation
            JOINT RightShoulder
            {
              OFFSET 2.46616 -1.6653 3.69651
              CHANNELS 6 Xposition Yposition Zposition Zrotation Xrotation Yrotation
              JOINT RightArm
              {
                OFFSET 13.0012 0 0
                CHANNELS 6 Xposition Yposition Zposition Zrotation Xrotation Yrotation
                JOINT RightForeArm
                {
                  OFFSET 28.7848 1.52588e-005 0
                  CHANNELS 6 Xposition Yposition Zposition Zrotation Xrotation Yrotation
                  JOINT RightHand
                  {
                    OFFSET 26.5688 1.52588e-005 0
                    CHANNELS 6 Xposition Yposition Zposition Zrotation Xrotation Yrotation
                    JOINT RightHandMiddle1
                    {
                      OFFSET 8.03675 -0.886582 0.727868
                      CHANNELS 6 Xposition Yposition Zposition Zrotation Xrotation Yrotation
                      JOINT RightHandMiddle2
                      {
                        OFFSET 2.78833 0 0
                        CHANNELS 6 Xposition Yposition Zposition Zrotation Xrotation Yrotation
                        JOINT RightHandMiddle3
                        {
                          OFFSET 2.41155 0 0
                          CHANNELS 6 Xposition Yposition Zposition Zrotation Xrotation Yrotation
                          End Site
                          {
                            OFFSET 0 0 0
                          }
                        }
                      }
                    }
                    JOINT RightHandRing1
                    {
                      OFFSET 7.97966 -0.886765 -1.00486
                      CHANNELS 6 Xposition Yposition Zposition Zrotation Xrotation Yrotation
                      JOINT RightHandRing2
                      {
                        OFFSET 2.86368 0 0
                        CHANNELS 6 Xposition Yposition Zposition Zrotation Xrotation Yrotation
                        JOINT RightHandRing3
                        {
                          OFFSET 2.11079 0 0
                          CHANNELS 6 Xposition Yposition Zposition Zrotation Xrotation Yrotation
                          End Site
                          {
                            OFFSET 0 0 0
                          }
                        }
                      }
                    }
                    JOINT RightHandPinky1
                    {
                      OFFSET 8.03707 -0.887528 -2.60696
                      CHANNELS 6 Xposition Yposition Zposition Zrotation Xrotation Yrotation
                      JOINT RightHandPinky2
                      {
                        OFFSET 1.84627 0 0
                        CHANNELS 6 Xposition Yposition Zposition Zrotation Xrotation Yrotation
                        JOINT RightHandPinky3
                        {
                          OFFSET 1.88434 0 0
                          CHANNELS 6 Xposition Yposition Zposition Zrotation Xrotation Yrotation
                          End Site
                          {
                            OFFSET 0 0 0
                          }
                        }
                      }
                    }
                    JOINT RightHandIndex1
                    {
                      OFFSET 7.92262 -0.885498 2.31175
                      CHANNELS 6 Xposition Yposition Zposition Zrotation Xrotation Yrotation
                      JOINT RightHandIndex2
                      {
                        OFFSET 2.63761 0 0
                        CHANNELS 6 Xposition Yposition Zposition Zrotation Xrotation Yrotation
                        JOINT RightHandIndex3
                        {
                          OFFSET 2.16656 0 0
                          CHANNELS 6 Xposition Yposition Zposition Zrotation Xrotation Yrotation
                          End Site
                          {
                            OFFSET 0 0 0
                          }
                        }
                      }
                    }
                    JOINT RightHandThumb1
                    {
                      OFFSET 3.4769 0.0597992 2.88789
                      CHANNELS 6 Xposition Yposition Zposition Zrotation Xrotation Yrotation
                      JOINT RightHandThumb2
                      {
                        OFFSET 2.77686 9.72748e-005 -1.52588e-005
                        CHANNELS 6 Xposition Yposition Zposition Zrotation Xrotation Yrotation
                        JOINT RightHandThumb3
                        {
                          OFFSET 2.42058 -9.15528e-005 0
                          CHANNELS 6 Xposition Yposition Zposition Zrotation Xrotation Yrotation
                          End Site
                          {
                            OFFSET 0 0 0
                          }
                        }
                      }
                    }
                  }
                }
              }
            }
            JOINT LeftShoulder
            {
              OFFSET 2.38034 -1.29275 -3.7523
              CHANNELS 6 Xposition Yposition Zposition Zrotation Xrotation Yrotation
              JOINT LeftArm
              {
                OFFSET 16.3182 6.10351e-005 0
                CHANNELS 6 Xposition Yposition Zposition Zrotation Xrotation Yrotation
                JOINT LeftForeArm
                {
                  OFFSET 27.0901 0 0
                  CHANNELS 6 Xposition Yposition Zposition Zrotation Xrotation Yrotation
                  JOINT LeftHand
                  {
                    OFFSET 24.5451 1.52588e-005 0
                    CHANNELS 6 Xposition Yposition Zposition Zrotation Xrotation Yrotation
                    JOINT LeftHandMiddle1
                    {
                      OFFSET 9.21802 0.665817 0.545532
                      CHANNELS 6 Xposition Yposition Zposition Zrotation Xrotation Yrotation
                      JOINT LeftHandMiddle2
                      {
                        OFFSET 2.66255 0 0
                        CHANNELS 6 Xposition Yposition Zposition Zrotation Xrotation Yrotation
                        JOINT LeftHandMiddle3
                        {
                          OFFSET 2.2804 0 0
                          CHANNELS 6 Xposition Yposition Zposition Zrotation Xrotation Yrotation
                          End Site
                          {
                            OFFSET 0 0 0
                          }
                        }
                      }
                    }
                    JOINT LeftHandRing1
                    {
                      OFFSET 9.24775 0.665192 -1.1267
                      CHANNELS 6 Xposition Yposition Zposition Zrotation Xrotation Yrotation
                      JOINT LeftHandRing2
                      {
                        OFFSET 2.47041 0 -1.52588e-005
                        CHANNELS 6 Xposition Yposition Zposition Zrotation Xrotation Yrotation
                        JOINT LeftHandRing3
                        {
                          OFFSET 2.2054 0 0
                          CHANNELS 6 Xposition Yposition Zposition Zrotation Xrotation Yrotation
                          End Site
                          {
                            OFFSET 0 0 0
                          }
                        }
                      }
                    }
                    JOINT LeftHandPinky1
                    {
                      OFFSET 9.35384 0.66301 -2.72332
                      CHANNELS 6 Xposition Yposition Zposition Zrotation Xrotation Yrotation
                      JOINT LeftHandPinky2
                      {
                        OFFSET 1.63407 0 0
                        CHANNELS 6 Xposition Yposition Zposition Zrotation Xrotation Yrotation
                        JOINT LeftHandPinky3
                        {
                          OFFSET 1.71176 0 0
                          CHANNELS 6 Xposition Yposition Zposition Zrotation Xrotation Yrotation
                          End Site
                          {
                            OFFSET 0 0 0
                          }
                        }
                      }
                    }
                    JOINT LeftHandIndex1
                    {
                      OFFSET 8.73161 0.675903 2.06801
                      CHANNELS 6 Xposition Yposition Zposition Zrotation Xrotation Yrotation
                      JOINT LeftHandIndex2
                      {
                        OFFSET 2.66689 0 0
                        CHANNELS 6 Xposition Yposition Zposition Zrotation Xrotation Yrotation
                        JOINT LeftHandIndex3
                        {
                          OFFSET 2.12946 0 1.52588e-005
                          CHANNELS 6 Xposition Yposition Zposition Zrotation Xrotation Yrotation
                          End Site
                          {
                            OFFSET 0 0 0
                          }
                        }
                      }
                    }
                    JOINT LeftHandThumb1
                    {
                      OFFSET 4.96735 -0.62265 3.39586
                      CHANNELS 6 Xposition Yposition Zposition Zrotation Xrotation Yrotation
                      JOINT LeftHandThumb2
                      {
                        OFFSET 2.15386 1.52588e-005 0
                        CHANNELS 6 Xposition Yposition Zposition Zrotation Xrotation Yrotation
                        JOINT LeftHandThumb3
                        {
                          OFFSET 2.19511 -3.43323e-005 1.52588e-005
                          CHANNELS 6 Xposition Yposition Zposition Zrotation Xrotation Yrotation
                          End Site
                          {
                            OFFSET 0 0 0
                          }
                        }
                      }
                    }
                  }
                }
              }
            }
            JOINT Neck
            {
              OFFSET 5.0226 -0.0266342 0
              CHANNELS 6 Xposition Yposition Zposition Zrotation Xrotation Yrotation
              JOINT Head
              {
                OFFSET 6.69364 2.86102e-005 0
                CHANNELS 6 Xposition Yposition Zposition Zrotation Xrotation Yrotation
                End Site
                {
                  OFFSET 0 0 0
                }
              }
            }
          }
        }
      }
    }
  }
}
MOTION
Frames:	4
Frame Time:	0.0333333
-35.3132 85.4293 -134.045 72.7516 -34.9934 79.2605 8.64259 1.95398 -2.38835 -169.744 3.99575 94.3265 43.7702 7.03335e-006 0 -29.4424 -8.79581 -0.477148 40.6238 1.43051e-006 9.53674e-007 80.245 -17.8483 -6.71589 12.7242 2.38419e-006 9.53674e-007 28.7808 1.77856e-006 -5.67807e-007 -8.2249 1.95398 -2.59336 -175.995 55.1172 79.8768 43.5653 7.27177e-006 1.42109e-014 -53.0974 8.7357 0.048742 40.6238 2.38419e-006 9.53674e-007 71.3146 8.1453 3.83835 12.7242 -4.76837e-007 7.10543e-015 28.7808 1.29624e-005 1.86858e-005 0.165834 0.87714 6.61349 -0.51516 5.50285 -88.7429 7.38963 1.71661e-005 -9.72809e-008 15.8571 -0.592632 0.895966 11.9445 1.14441e-005 6.65395e-008 4.18596 -0.552633 0.921246 14.7254 4.19617e-005 8.195e-008 -18.3487 -0.834519 0.676508 10.9679 -9.53674e-006 5.82672e-008 1.66396 -0.834543 0.676494 2.46616 -1.6653 3.69651 106.57 -51.9348 -75.2933 13.0012 0 0 29.6636 12.9388 1.79553 28.7848 1.52588e-005 -1.19209e-007 -22.693 -34.9929 -34.0595 26.5688 1.52588e-005 4.76837e-007 1.03631 -0.347863 -26.8933 8.03675 -0.886582 0.727868 -89.4039 88.9709 89.0936 2.78833 2.38419e-007 0 -0.0604882 1.11572e-005 2.27095e-005 2.41155 -7.10543e-015 0 -0.0639212 -1.71838e-005 9.72007e-007 7.97966 -0.886765 -1.00486 -89.3944 88.981 89.0841 2.86368 -3.55272e-015 0 -1.15742 3.63794e-006 1.05767e-006 2.11079 0 1.42109e-014 2.576 -1.04753e-005 6.11925e-009 8.03707 -0.887528 -2.60696 -88.8572 89.3579 88.547 1.84627 -3.55271e-015 0 -1.14578 -4.59102e-006 7.37135e-005 1.88434 3.55271e-015 0 1.14577 1.04521e-005 8.26876e-008 7.92262 -0.885498 2.31175 -89.4226 88.9487 89.1123 2.63761 4.76837e-007 -2.13163e-014 0.409284 8.00829e-006 0.000544801 2.16656 -2.38419e-007 0 -0.636601 -1.38935e-005 -3.88645e-008 3.4769 0.0597992 2.88789 104.364 40.5023 -88.8246 2.77686 9.72748e-005 -1.52588e-005 -7.66902 0.18618 -1.35044 2.42058 -9.15528e-005 0 -11.2634 -4.2876e-006 6.74198e-005 2.38034 -1.29275 -3.7523 -76.8356 -46.3224 98.6566 16.3182 6.10351e-005 1.19209e-007 -28.3065 -6.37891 -34.6994 27.0901 0 7.10543e-015 2.75713 0.859016 -26.2785 24.5451 1.52588e-005 -1.42109e-014 23.6904 -5.06379 -25.5146 9.21802 0.665817 0.545532 -91.1871 -87.8289 -89.9986 2.66255 -2.13163e-014 0 3.40888 -9.70938e-006 0.00315956 2.2804 -7.10543e-015 2.84217e-014 -0.954859 3.12278e-006 3.72969e-008 9.24775 0.665192 -1.1267 -91.1878 -89.4015 -89.9993 2.47041 -4.76837e-007 -1.52588e-005 2.85637 9.73466e-006 0.00258195 2.2054 -7.10543e-015 -2.84217e-014 -3.16844 -2.02713e-007 -3.71876e-007 9.35384 0.66301 -2.72332 88.8084 -89.717 89.9969 1.63407 -4.76837e-007 -2.84217e-014 2.54481 3.60094e-006 0.00297207 1.71176 7.10543e-015 2.84217e-014 -2.54482 -8.23608e-006 7.72196e-007 8.73161 0.675903 2.06801 -91.1882 -86.1973 -89.9997 2.66689 -9.53674e-007 0 6.13104 -9.19937e-006 0.00653458 2.12946 1.04308e-007 1.52588e-005 -2.04542 -6.58188e-006 -2.09562e-007 4.96735 -0.62265 3.39586 -101.949 -40.7242 -90.0694 2.15386 1.52588e-005 0 10.0172 -1.16226e-005 1.48926e-006 2.19511 -3.43323e-005 1.52588e-005 -2.66976 1.32727e-005 -1.97279e-006 5.0226 -0.0266342 -9.09495e-013 72.8113 -6.37456 -1.33789 6.69364 2.86102e-005 -1.09447e-007 -58.1985 -2.34233 -3.76915 
-32.6816 84.1515 -130.558 70.5314 -35.3213 77.7811 8.64259 1.95398 -2.38835 -168.92 2.88691 95.3383 43.7702 7.03335e-006 -2.84217e-014 -29.407 -7.42022 -0.411696 40.6238 1.43051e-006 9.53674e-007 78.2708 -19.1863 -7.70616 12.7242 2.38419e-006 9.53674e-007 28.7808 1.77856e-006 -5.67807e-007 -8.2249 1.95398 -2.59336 -175.363 58.8144 79.4741 43.5653 7.27177e-006 -7.10543e-015 -53.4252 9.57642 0.0930587 40.6238 2.38419e-006 9.53674e-007 70.0793 6.4517 3.13743 12.7242 -4.76837e-007 7.10543e-015 28.7808 1.29624e-005 1.86858e-005 0.165834 0.87714 6.61349 -0.680876 5.29695 -88.689 7.38963 1.71661e-005 -9.72809e-008 16.2637 -0.919065 0.927532 11.9445 1.14441e-005 6.65395e-008 4.59271 -0.877597 0.966215 14.7254 4.19617e-005 8.195e-008 -17.9437 -1.15395 0.60673 10.9679 -9.53674e-006 5.82672e-008 2.06898 -1.15397 0.6067 2.46616 -1.6653 3.69651 108.867 -52.5737 -71.8872 13.0012 -1.42109e-014 0 27.7615 14.0028 2.07469 28.7848 1.52588e-005 -1.19209e-007 -20.1426 -31.8243 -32.3956 26.5688 1.52588e-005 4.76837e-007 1.54199 -0.402121 -24.9166 8.03675 -0.886582 0.727868 -89.4039 88.9709 89.0936 2.78833 2.38419e-007 7.10543e-015 -0.0604882 1.11572e-005 2.27095e-005 2.41155 0 0 -0.0639212 -1.71838e-005 9.72007e-007 7.97966 -0.886765 -1.00486 -89.3944 88.981 89.0841 2.86368 -7.10543e-015 7.10543e-015 -1.15742 3.63794e-006 1.05767e-006 2.11079 0 0 2.576 -1.04753e-005 6.11924e-009 8.03707 -0.887528 -2.60696 -88.8572 89.3579 88.547 1.84627 0 0 -1.14578 -4.59102e-006 7.37135e-005 1.88434 0 0 1.14577 1.04521e-005 8.26876e-008 7.92262 -0.885498 2.31175 -89.4226 88.9487 89.1123 2.63761 4.76837e-007 0 0.409284 8.00829e-006 0.000544801 2.16656 -2.38419e-007 1.42109e-014 -0.636601 -1.38935e-005 -3.88645e-008 3.4769 0.0597992 2.88789 104.364 40.5023 -88.8246 2.77686 9.72748e-005 -1.52588e-005 -7.66902 0.18618 -1.35044 2.42058 -9.15528e-005 0 -11.2634 -4.2876e-006 6.74198e-005 2.38034 -1.29275 -3.7523 -76.8915 -44.7304 98.5895 16.3182 6.10351e-005 1.19209e-007 -28.0066 -6.70925 -36.0029 27.0901 0 7.10543e-015 3.45452 2.65342 -24.6362 24.5451 1.52588e-005 0 26.6807 -5.75859 -26.0048 9.21802 0.665817 0.545532 -91.1871 -87.8289 -89.9986 2.66255 7.10543e-015 -2.84217e-014 3.40888 -9.70938e-006 0.00315956 2.2804 1.42109e-014 0 -0.954859 3.12278e-006 3.72969e-008 9.24775 0.665192 -1.1267 -91.1878 -89.4015 -89.9993 2.47041 -4.76837e-007 -1.52588e-005 2.85637 9.73466e-006 0.00258195 2.2054 -1.42109e-014 -2.84217e-014 -3.16844 -2.02713e-007 -3.71876e-007 9.35384 0.66301 -2.72332 88.8084 -89.717 89.9969 1.63407 -4.76837e-007 0 2.54481 3.60094e-006 0.00297207 1.71176 0 0 -2.54482 -8.23608e-006 7.72196e-007 8.73161 0.675903 2.06801 -91.1882 -86.1973 -89.9997 2.66689 -9.53674e-007 0 6.13104 -9.19937e-006 0.00653458 2.12946 1.04308e-007 1.52588e-005 -2.04542 -6.58188e-006 -2.09562e-007 4.96735 -0.62265 3.39586 -101.949 -40.7242 -90.0694 2.15386 1.52588e-005 0 10.0172 -1.16226e-005 1.48926e-006 2.19511 -3.43323e-005 1.52588e-005 -2.66976 1.32727e-005 -1.97279e-006 5.0226 -0.0266342 -9.23706e-013 76.4455 -7.93347 -3.69864 6.69364 2.86102e-005 -1.09447e-007 -60.0655 -3.0371 -0.743462 
-29.7945 82.6047 -126.644 68.0409 -34.7508 76.0552 8.64259 1.95398 -2.38835 -168.367 2.66895 96.2516 43.7702 7.03335e-006 0 -30.5299 -4.78187 0.530069 40.6238 1.43051e-006 9.53674e-007 74.7782 -20.6754 -9.20628 12.7242 2.38419e-006 9.53674e-007 28.7808 1.77856e-006 -5.67807e-007 -8.2249 1.95398 -2.59336 -174.172 62.443 78.3224 43.5653 7.27177e-006 -1.42109e-014 -55.1719 9.66196 0.0670665 40.6238 2.38419e-006 9.53674e-007 64.2987 5.15385 3.0107 12.7242 -4.76837e-007 7.10543e-015 28.7808 1.29624e-005 1.86858e-005 0.165834 0.87714 6.61349 -0.944892 5.02135 -88.6467 7.38963 1.71661e-005 -9.72809e-008 16.818 -1.44234 0.883852 11.9445 1.14441e-005 6.65395e-008 5.14779 -1.39896 0.944678 14.7254 4.19617e-005 8.195e-008 -17.3935 -1.65852 0.421635 10.9679 -9.53674e-006 5.82672e-008 2.61917 -1.65854 0.421618 2.46616 -1.6653 3.69651 110.482 -52.4291 -69.4418 13.0012 -7.10543e-015 0 25.9964 15.0212 3.65433 28.7848 1.52588e-005 -1.19209e-007 -18.202 -27.0244 -32.9258 26.5688 1.52588e-005 4.76837e-007 3.56146 -0.674858 -22.6865 8.03675 -0.886582 0.727868 -89.4039 88.9709 89.0936 2.78833 2.38419e-007 0 -0.0604882 1.11572e-005 2.27095e-005 2.41155 0 -7.10543e-015 -0.0639212 -1.71838e-005 9.72007e-007 7.97966 -0.886765 -1.00486 -89.3944 88.981 89.0841 2.86368 7.10543e-015 1.42109e-014 -1.15742 3.63794e-006 1.05767e-006 2.11079 7.10543e-015 7.10543e-015 2.576 -1.04753e-005 6.11924e-009 8.03707 -0.887528 -2.60696 -88.8572 89.3579 88.547 1.84627 0 -1.42109e-014 -1.14578 -4.59102e-006 7.37135e-005 1.88434 0 0 1.14577 1.04521e-005 8.26876e-008 7.92262 -0.885498 2.31175 -89.4226 88.9487 89.1123 2.63761 4.76837e-007 7.10543e-015 0.409284 8.00829e-006 0.000544801 2.16656 -2.38419e-007 -7.10543e-015 -0.636601 -1.38935e-005 -3.88645e-008 3.4769 0.0597992 2.88789 104.364 40.5023 -88.8246 2.77686 9.72748e-005 -1.52588e-005 -7.66902 0.18618 -1.35044 2.42058 -9.15528e-005 -7.10543e-015 -11.2634 -4.2876e-006 6.74198e-005 2.38034 -1.29275 -3.7523 -76.2781 -43.2186 99.6596 16.3182 6.10351e-005 1.19209e-007 -27.318 -7.10606 -31.1222 27.0901 0 -1.42109e-014 3.29632 1.41285 -32.7663 24.5451 1.52588e-005 -1.42109e-014 24.8748 -4.7 -23.2248 9.21802 0.665817 0.545532 -91.1871 -87.8289 -89.9986 2.66255 0 0 3.40888 -9.70938e-006 0.00315956 2.2804 7.10543e-015 0 -0.954859 3.12278e-006 3.72969e-008 9.24775 0.665192 -1.1267 -91.1878 -89.4015 -89.9993 2.47041 -4.76837e-007 -1.52588e-005 2.85637 9.73466e-006 0.00258195 2.2054 2.13163e-014 0 -3.16844 -2.02713e-007 -3.71876e-007 9.35384 0.66301 -2.72332 88.8084 -89.717 89.9969 1.63407 -4.76837e-007 0 2.54481 3.60094e-006 0.00297207 1.71176 -7.10543e-015 0 -2.54482 -8.23608e-006 7.72196e-007 8.73161 0.675903 2.06801 -91.1882 -86.1973 -89.9997 2.66689 -9.53674e-007 0 6.13104 -9.19937e-006 0.00653458 2.12946 1.04308e-007 1.52588e-005 -2.04542 -6.58188e-006 -2.09562e-007 4.96735 -0.62265 3.39586 -101.949 -40.7242 -90.0694 2.15386 1.52588e-005 0 10.0172 -1.16226e-005 1.48926e-006 2.19511 -3.43323e-005 1.52588e-005 -2.66976 1.32727e-005 -1.97279e-006 5.0226 -0.0266342 -9.09495e-013 80.0123 -8.63233 -4.87483 6.69364 2.86102e-005 -1.09447e-007 -61.969 -3.2211 1.04236 
-26.548 81.0414 -122.295 65.7877 -33.622 74.8021 8.64259 1.95398 -2.38835 -167.782 2.69564 97.4547 43.7702 7.03335e-006 -1.42109e-014 -31.9778 -0.257771 2.69707 40.6238 1.43051e-006 9.53674e-007 68.6235 -22.2706 -11.6165 12.7242 2.38419e-006 9.53674e-007 28.7808 1.77856e-006 -5.67807e-007 -8.2249 1.95398 -2.59336 -174.173 62.6947 78.5755 43.5653 7.27177e-006 7.10543e-015 -57.0692 -2.41262 -0.656648 40.6238 2.38419e-006 9.53674e-007 66.7681 2.7435 1.51535 12.7242 -4.76837e-007 1.42109e-014 28.7808 1.29624e-005 1.86858e-005 0.165834 0.87714 6.61349 -1.61449 4.91953 -87.6881 7.38963 1.71661e-005 -9.72809e-008 17.0218 -2.39204 2.95989 11.9445 1.14441e-005 6.65395e-008 5.35035 -2.26947 3.06196 14.7254 4.19617e-005 8.195e-008 -17.1883 -3.16469 2.10625 10.9679 -9.53674e-006 5.82672e-008 2.82434 -3.16471 2.10625 2.46616 -1.6653 3.69651 118.762 -63.7826 -60.0961 13.0012 0 0 22.9298 16.4168 0.385037 28.7848 1.52588e-005 -1.19209e-007 -14.3155 -24.657 -27.5882 26.5688 1.52588e-005 4.76837e-007 3.69343 -0.686229 -22.4496 8.03675 -0.886582 0.727868 -89.4039 88.9709 89.0936 2.78833 2.38419e-007 0 -0.0604882 1.11572e-005 2.27095e-005 2.41155 -7.10543e-015 0 -0.0639212 -1.71838e-005 9.72007e-007 7.97966 -0.886765 -1.00486 -89.3944 88.981 89.0841 2.86368 7.10543e-015 0 -1.15742 3.63794e-006 1.05767e-006 2.11079 0 1.42109e-014 2.576 -1.04753e-005 6.11925e-009 8.03707 -0.887528 -2.60696 -88.8572 89.3579 88.547 1.84627 0 -7.10543e-015 -1.14578 -4.59102e-006 7.37135e-005 1.88434 0 -7.10543e-015 1.14577 1.04521e-005 8.26876e-008 7.92262 -0.885498 2.31175 -89.4226 88.9487 89.1123 2.63761 4.76837e-007 0 0.409284 8.00829e-006 0.000544801 2.16656 -2.38419e-007 -1.42109e-014 -0.636601 -1.38935e-005 -3.88645e-008 3.4769 0.0597992 2.88789 104.364 40.5023 -88.8246 2.77686 9.72748e-005 -1.52588e-005 -7.66902 0.18618 -1.35044 2.42058 -9.15528e-005 0 -11.2634 -4.2876e-006 6.74198e-005 2.38034 -1.29275 -3.7523 -74.825 -19.9606 103.84 16.3182 6.10351e-005 1.19209e-007 -33.1489 2.36771 -19.0444 27.0901 0 0 -4.71896 -5.70036 -56.0823 24.5451 1.52588e-005 1.42109e-014 24.4327 -1.94934 -12.1158 9.21802 0.665817 0.545532 -91.1871 -87.8289 -89.9986 2.66255 0 0 3.40888 -9.70938e-006 0.00315956 2.2804 -1.42109e-014 0 -0.954859 3.12278e-006 3.72969e-008 9.24775 0.665192 -1.1267 -91.1878 -89.4015 -89.9993 2.47041 -4.76837e-007 -1.52588e-005 2.85637 9.73466e-006 0.00258195 2.2054 0 -2.84217e-014 -3.16844 -2.02713e-007 -3.71876e-007 9.35384 0.66301 -2.72332 88.8084 -89.717 89.9969 1.63407 -4.76837e-007 0 2.54481 3.60094e-006 0.00297207 1.71176 7.10543e-015 0 -2.54482 -8.23608e-006 7.72196e-007 8.73161 0.675903 2.06801 -91.1882 -86.1973 -89.9997 2.66689 -9.53674e-007 0 6.13104 -9.19937e-006 0.00653458 2.12946 1.04308e-007 1.52588e-005 -2.04542 -6.58188e-006 -2.09562e-007 4.96735 -0.62265 3.39586 -101.949 -40.7242 -90.0694 2.15386 1.52588e-005 -2.84217e-014 10.0172 -1.16226e-005 1.48926e-006 2.19511 -3.43323e-005 1.52588e-005 -2.66976 1.32727e-005 -1.97279e-006 5.0226 -0.0266342 -9.09495e-013 71.7377 -27.9552 -30.6377 6.69364 2.86102e-005 -1.09447e-007 -55.2907 -9.74211 21.6615 
